<svg xmlns="http://www.w3.org/2000/svg" viewBox="0 0 100 100"><title>Artboard 3</title><path d="M86.8,71.7,70.2,53.4a.4.4,0,0,0-.6.1l-3,7.4c-.1.2-.1.5.1.6L80.9,77.2a6.5,6.5,0,0,1-.2,8.8,6.4,6.4,0,0,1-8.7.3L51,67.7,86.7,28.3a14.8,14.8,0,0,0-.4-20.1,14.4,14.4,0,0,0-19.7-.6c-5.7,4.9-21.1,18.7-21.1,18.7S32.6,11.9,29.3,8.4A11.3,11.3,0,0,0,16.6,5.5a11.7,11.7,0,0,0-7.1,11V83.7a11.3,11.3,0,0,0,19.8,7.8L40,79.8a.6.6,0,0,0,0-.7l-3.3-7a.4.4,0,0,0-.6-.1L23.4,86.1a3.4,3.4,0,0,1-3.8.8,3.3,3.3,0,0,1-2.1-3.2V16.2a3.3,3.3,0,0,1,2.3-3.3,3.5,3.5,0,0,1,3.4.7L56.1,50,44.9,62.3s-8.4-7.3-9.4-8.4a5.4,5.4,0,0,1-1.8-4A5,5,0,0,1,35.5,46c.2-.2,1.5-1.5,3.6-3.3a.7.7,0,0,0,.2-.7l-2.5-7.3c-.1-.3-.4-.4-.6-.2l-6,5.4a13.3,13.3,0,0,0,0,20.1L66.7,92.4A15,15,0,0,0,76.2,96a14,14,0,0,0,10.1-4.2A14.7,14.7,0,0,0,86.8,71.7ZM51,32.2,71.9,13.6a6.6,6.6,0,0,1,8.7.3,6.6,6.6,0,0,1,.2,8.9c-2.2,2.6-19.2,21.1-19.2,21.1l-3.4-3.7Z" style="fill:#f14c4c"/></svg>